PathFileType	4	(X/Y/Z)	Walk2.trc
DataRate	CameraRate	NumFrames	NumMarkers	Units	OrigDataRate	OrigDataStartFrame	OrigNumFrames
200.000000	200.000000	6	59	mm	200.000000	349	381
Frame#	Times		LFHD		RFHD		LBHD		RBHD		C7		T10		CLAV		STRN		RBack		LASI		RASI		LPSI		RPSI		RACR1		RUA1		RElbow		RElbowM		RFA1		RWRR		RWRU		RCAR		LACR1		LUA1		LElbow		LElbowM		LFA1		LWRR		LWRU		LCAR		RTH1		RTH3		RTH2		RTH4		RLFC		RTB1		RTB3		RTB2		RTB4		RLMAL		RMMAL		RCAL		RMT1		RMT5		RToe		LTH1		LTH3		LTH2		LTH4		LLFC		LTB1		LTB3		LTB2		LTB4		LLMAL		LCAL		LMT5		LToe		LMMAL		LMT1
			X1	Y1	Z1	X2	Y2	Z2	X3	Y3	Z3	X4	Y4	Z4	X5	Y5	Z5	X6	Y6	Z6	X7	Y7	Z7	X8	Y8	Z8	X9	Y9	Z9	X10	Y10	Z10	X11	Y11	Z11	X12	Y12	Z12	X13	Y13	Z13	X14	Y14	Z14	X15	Y15	Z15	X16	Y16	Z16	X17	Y17	Z17	X18	Y18	Z18	X19	Y19	Z19	X20	Y20	Z20	X21	Y21	Z21	X22	Y22	Z22	X23	Y23	Z23	X24	Y24	Z24	X25	Y25	Z25	X26	Y26	Z26	X27	Y27	Z27	X28	Y28	Z28	X29	Y29	Z29	X30	Y30	Z30	X31	Y31	Z31	X32	Y32	Z32	X33	Y33	Z33	X34	Y34	Z34	X35	Y35	Z35	X36	Y36	Z36	X37	Y37	Z37	X38	Y38	Z38	X39	Y39	Z39	X40	Y40	Z40	X41	Y41	Z41	X42	Y42	Z42	X43	Y43	Z43	X44	Y44	Z44	X45	Y45	Z45	X46	Y46	Z46	X47	Y47	Z47	X48	Y48	Z48	X49	Y49	Z49	X50	Y50	Z50	X51	Y51	Z51	X52	Y52	Z52	X53	Y53	Z53	X54	Y54	Z54	X55	Y55	Z55	X56	Y56	Z56	X57	Y57	Z57	X58	Y58	Z58	X59	Y59	Z59

349	1.745	725.02	1450.5	-88.349	712.05	1443.5	7.4337	605.21	1363.3	-121.9	587.33	1361.7	10.677	564.73	1276.2	-55.022	483.93	1079.1	-26.837	706.32	1197.6	-42.4	760.78	1092.3	-29.613	512.96	1164.6	71.822	684.37	821.12	-178.27	703.29	841.37	143.94	433.34	859.02	-57.918	441.73	855.63	47.442	625.09	1238.4	130.74	633.79	1106.7	226.28	631.53	983.76	272.3	577.75	943.72	206.58	702.07	871.8	278.35	726.06	773.76	245.15	695.6	772.67	311.3	745.41	718.58	296.91	636.28	1206.2	-233.96	670.29	1039.5	-289.75	645.97	920.75	-302.01	619.57	898.53	-234.85	713.99	835.63	-332.28	765.62	734.87	-316.29	715.56	723.62	-352.55	761.95	684.96	-361.41	654.62	652.92	205.12	708.63	490.9	171.26	733.77	593.34	174.82	679.43	570.6	190.75	697.26	410.31	152.7	708.96	298.27	110.1	615.01	157.75	80.778	620.23	247	138.54	658.11	229.02	94.634	536.33	123.69	102.62	567.89	124.22	25.699	484.45	119.59	45.036	636.45	50.76	56.837	593.72	53.619	134.36	675.51	43.317	102.36	621.65	657.98	-222.74	626.42	490.2	-174.52	677.88	584.18	-180.79	623.4	573.43	-202.13	650.38	398.59	-137.72	667.08	298.82	-72.188	636.76	130.92	-60.512	625.66	214.14	-123.64	647.46	213.2	-65.39	576.25	60.298	-90.461	533.97	45.6	-46.005	656.39	20.662	-115.89	751.67	30.466	-59.039	601.41	75.401	-13.038	701.84	35.68	-32.505
350	1.75	729.96	1450.6	-88.374	716.92	1443.6	7.4052	610.22	1363.4	-122.02	592.22	1361.8	10.543	569.71	1276.3	-55.201	488.87	1079.3	-27.144	711.27	1197.8	-42.369	765.69	1092.4	-29.07	517.82	1164.8	71.543	689.31	821.03	-178.27	707.76	841.62	144.08	438.11	859.42	-58.097	446.51	855.94	47.212	629.92	1238.6	130.6	638.38	1106.8	226.21	635.86	984.09	272.36	582.27	944.01	206.5	706.33	872.07	278.57	730.25	773.96	245.61	699.73	773.01	311.73	749.58	718.92	297.54	641.51	1206.4	-234.05	674.99	1039.7	-290.14	651.43	920.91	-302.32	625.29	898.58	-235.09	719.99	836.14	-332.63	772.29	735.81	-316.62	722.25	724.16	-352.79	768.99	686.02	-361.81	659.88	653.14	204.97	715.07	491.6	170.46	739.5	594.23	174.53	685.29	571.01	190.33	704.32	410.63	151.94	718.46	298.85	109.1	628.5	155.77	80.127	631.33	245.06	137.94	669.59	228.25	93.828	550.82	119.44	102.3	582.25	120.9	25.342	498.94	113.7	44.761	653.19	49.797	56.457	610.43	51.158	134	692.53	43.584	101.88	625.76	657.96	-222.72	629.32	490.14	-174.58	681.39	583.82	-180.77	626.9	573.32	-202.12	652.52	398.27	-137.73	668.53	298.41	-72.123	637.25	130.71	-60.438	626.73	213.96	-123.62	648.46	212.93	-65.338	576.38	60.41	-90.438	534.06	45.79	-45.931	656.35	20.645	-115.87	751.71	30.434	-59.01	601.51	75.38	-12.96	701.85	35.629	-32.477
351	1.755	734.91	1450.7	-88.381	721.8	1443.7	7.3945	615.23	1363.5	-122.11	597.11	1361.8	10.432	574.69	1276.5	-55.36	493.8	1079.4	-27.431	716.22	1197.8	-42.327	770.58	1092.4	-28.552	522.67	1164.9	71.285	694.27	820.9	-178.22	712.23	841.81	144.23	442.88	859.81	-58.211	451.31	856.2	47.046	634.75	1238.7	130.49	642.99	1107	226.17	640.2	984.36	272.45	586.82	944.24	206.43	710.59	872.3	278.85	734.48	774.13	246.12	703.88	773.3	312.19	753.77	719.25	298.23	646.74	1206.5	-234.12	679.67	1039.9	-290.51	656.86	921.02	-302.61	631.01	898.6	-235.3	725.95	836.62	-332.97	778.91	736.7	-316.95	728.9	724.66	-353.02	775.96	687.03	-362.2	665.13	653.29	204.84	721.38	492.23	169.63	745.18	595.03	174.23	691.08	571.37	189.92	711.2	410.88	151.14	727.85	299.43	108.1	642.06	153.83	79.515	642.41	243.12	137.33	681.06	227.49	93.04	565.47	115.21	102.02	596.76	117.6	25.013	513.67	107.82	44.503	670	48.936	56.144	627.25	48.807	133.7	709.57	43.992	101.48	629.9	657.92	-222.67	632.25	490.05	-174.63	684.93	583.46	-180.74	630.44	573.2	-202.1	654.71	397.94	-137.73	669.99	297.99	-72.051	637.75	130.49	-60.36	627.82	213.78	-123.6	649.46	212.65	-65.281	576.51	60.525	-90.413	534.15	45.98	-45.853	656.32	20.629	-115.86	751.76	30.409	-58.976	601.61	75.364	-12.875	701.85	35.578	-32.448
352	1.76	739.86	1450.8	-88.373	726.69	1443.8	7.4011	620.24	1363.5	-122.19	602.01	1361.9	10.344	579.67	1276.5	-55.497	498.74	1079.5	-27.698	721.16	1197.9	-42.276	775.46	1092.4	-28.068	527.52	1165	71.048	699.24	820.73	-178.12	716.7	841.94	144.4	447.63	860.19	-58.263	456.14	856.41	46.947	639.58	1238.8	130.4	647.62	1107	226.15	644.53	984.59	272.56	591.4	944.4	206.38	714.86	872.5	279.19	738.74	774.26	246.69	708.05	773.56	312.69	757.99	719.54	298.99	651.96	1206.6	-234.17	684.35	1040	-290.87	662.27	921.11	-302.88	636.72	898.59	-235.49	731.87	837.05	-333.31	785.48	737.54	-317.27	735.49	725.13	-353.24	782.87	687.97	-362.57	670.37	653.4	204.76	727.53	492.78	168.77	750.79	595.72	173.93	696.79	571.66	189.51	717.91	411.05	150.31	737.12	300	107.11	655.69	151.96	78.948	653.47	241.18	136.73	692.49	226.75	92.277	580.27	111.03	101.78	611.41	114.34	24.719	528.64	101.96	44.271	686.88	48.203	55.897	644.17	46.59	133.45	726.63	44.557	101.14	634.04	657.86	-222.61	635.23	489.94	-174.67	688.49	583.08	-180.69	634	573.05	-202.08	656.94	397.59	-137.73	671.49	297.55	-71.973	638.25	130.27	-60.28	628.92	213.58	-123.57	650.49	212.36	-65.22	576.64	60.645	-90.387	534.24	46.175	-45.772	656.3	20.613	-115.84	751.81	30.389	-58.937	601.72	75.354	-12.781	701.85	35.528	-32.417
353	1.765	744.82	1450.8	-88.348	731.59	1443.8	7.4246	625.25	1363.5	-122.25	606.92	1361.9	10.28	584.65	1276.5	-55.612	503.67	1079.5	-27.943	726.1	1197.9	-42.216	780.32	1092.3	-27.626	532.37	1165	70.834	704.21	820.52	-177.99	721.17	842	144.57	452.37	860.55	-58.253	461	856.56	46.915	644.39	1238.8	130.34	652.27	1107.1	226.16	648.87	984.77	272.7	595.99	944.5	206.35	719.13	872.66	279.58	743.05	774.35	247.3	712.23	773.78	313.24	762.23	719.79	299.79	657.19	1206.7	-234.21	689.05	1040.1	-291.22	667.65	921.15	-303.14	642.43	898.54	-235.65	737.74	837.43	-333.64	792	738.34	-317.58	742.04	725.55	-353.45	789.71	688.86	-362.92	675.58	653.44	204.71	733.54	493.25	167.89	756.33	596.29	173.64	702.42	571.87	189.11	724.42	411.14	149.45	746.27	300.58	106.12	669.37	150.16	78.432	664.5	239.28	136.13	703.9	226.04	91.547	595.24	106.94	101.58	626.21	111.13	24.464	543.84	96.151	44.069	703.81	47.621	55.717	661.19	44.529	133.26	743.67	45.297	100.87	638.2	657.76	-222.54	638.25	489.82	-174.7	692.08	582.7	-180.62	637.59	572.88	-202.04	659.21	397.22	-137.72	673.01	297.1	-71.891	638.77	130.04	-60.197	630.04	213.38	-123.54	651.52	212.06	-65.155	576.77	60.767	-90.357	534.34	46.377	-45.688	656.28	20.598	-115.81	751.87	30.374	-58.893	601.84	75.353	-12.678	701.85	35.478	-32.383
354	1.77	749.78	1450.8	-88.307	736.5	1443.8	7.4646	630.25	1363.5	-122.28	611.83	1361.8	10.241	589.64	1276.5	-55.702	508.61	1079.5	-28.166	731.04	1197.8	-42.149	785.18	1092.2	-27.232	537.22	1165	70.644	709.19	820.26	-177.82	725.67	842	144.76	457.11	860.9	-58.184	465.87	856.67	46.952	649.21	1238.7	130.3	656.93	1107	226.19	653.21	984.9	272.86	600.6	944.54	206.34	723.41	872.77	280.02	747.39	774.4	247.96	716.42	773.95	313.81	766.49	720.01	300.64	662.41	1206.8	-234.23	693.76	1040.2	-291.54	673.01	921.17	-303.39	648.13	898.47	-235.79	743.58	837.78	-333.96	798.47	739.09	-317.88	748.53	725.95	-353.65	796.49	689.68	-363.24	680.78	653.43	204.7	739.37	493.62	166.99	761.79	596.76	173.34	707.96	572.01	188.72	730.74	411.16	148.56	755.29	301.16	105.17	683.09	148.46	77.971	675.5	237.4	135.53	715.25	225.38	90.854	610.34	102.94	101.42	641.13	108.02	24.25	559.26	90.424	43.901	720.78	47.214	55.601	678.3	42.65	133.11	760.71	46.23	100.68	642.36	657.64	-222.45	641.31	489.67	-174.72	695.69	582.3	-180.55	641.2	572.69	-201.99	661.54	396.85	-137.71	674.58	296.63	-71.805	639.31	129.81	-60.11	631.18	213.17	-123.51	652.57	211.75	-65.085	576.91	60.894	-90.323	534.43	46.589	-45.601	656.28	20.586	-115.79	751.94	30.361	-58.843	601.98	75.363	-12.564	701.84	35.428	-32.347
